<?xml version="1.0" encoding="UTF-8" standalone="no"?><!-- Generator: Gravit.io --><svg xmlns="http://www.w3.org/2000/svg" xmlns:xlink="http://www.w3.org/1999/xlink" style="isolation:isolate" viewBox="0 0 300 300" width="300pt" height="300pt"><defs><clipPath id="_clipPath_6aGU2sXTeqlCXc0thOq8EnD2vkTaxSzd"><rect width="300" height="300"/></clipPath></defs><g clip-path="url(#_clipPath_6aGU2sXTeqlCXc0thOq8EnD2vkTaxSzd)"><g><path d=" M 666.5 216.5 L 666.5 616.5 L 266.5 616.5 L 666.5 216.5 Z " fill="none"/></g><linearGradient id="_lgradient_0" x1="0.1464466094067262" y1="0.14644660940672627" x2="0.8535533905932737" y2="0.8535533905932737" gradientTransform="matrix(250,0,0,250,25,25)" gradientUnits="userSpaceOnUse"><stop offset="1.7391304347826086%" stop-opacity="1" style="stop-color:rgb(125,165,198)"/><stop offset="100%" stop-opacity="1" style="stop-color:rgb(7,133,145)"/></linearGradient><path d=" M 130.302 125.316 C 133.857 125.316 136.769 122.403 136.769 118.849 C 136.769 115.294 133.857 112.382 130.302 112.382 C 126.748 112.382 123.835 115.294 123.835 118.849 C 123.835 122.403 126.748 125.316 130.302 125.316 Z  M 167.772 75.306 L 161.355 75.306 C 158.639 75.306 156.418 73.085 156.418 70.369 L 156.418 64.593 L 143.681 64.593 L 143.681 70.369 C 143.681 73.085 141.459 75.306 138.744 75.306 L 132.326 75.306 L 132.326 87.599 L 167.822 87.599 L 167.822 75.306 L 167.772 75.306 Z  M 156.912 191.914 C 153.357 191.914 150.444 194.826 150.444 198.381 C 150.444 201.935 153.357 204.848 156.912 204.848 C 160.466 204.848 163.379 201.935 163.379 198.381 C 163.329 194.826 160.466 191.914 156.912 191.914 Z  M 177.646 90.561 L 198.677 90.561 C 199.763 90.561 200.652 91.449 200.652 92.536 L 200.652 215.117 C 200.652 216.203 199.763 217.091 198.677 217.091 L 101.422 217.091 C 100.336 217.091 99.447 216.203 99.447 215.117 L 99.447 92.536 C 99.447 91.449 100.336 90.561 101.422 90.561 L 122.453 90.561 L 122.453 85.871 L 89.968 85.871 L 89.968 221.732 L 210.032 221.732 L 210.032 85.871 L 177.597 85.871 L 177.597 90.561 L 177.646 90.561 Z  M 103.347 213.092 L 196.653 213.092 L 196.653 94.51 L 177.202 94.51 C 176.461 96.238 174.684 97.472 172.66 97.472 L 127.291 97.472 C 125.267 97.472 123.539 96.238 122.749 94.51 L 103.298 94.51 L 103.298 213.092 L 103.347 213.092 Z  M 156.912 208.748 C 151.185 208.748 146.495 204.058 146.495 198.331 C 146.495 192.605 151.185 187.915 156.912 187.915 C 162.638 187.915 167.328 192.605 167.328 198.331 C 167.328 204.058 162.638 208.748 156.912 208.748 Z  M 183.274 171.524 C 182.78 173.549 182.188 175.671 181.546 177.794 C 181.392 178.294 181.044 178.711 180.58 178.952 C 180.116 179.193 179.575 179.238 179.078 179.078 C 178.041 178.732 177.449 177.646 177.794 176.609 C 178.436 174.585 179.028 172.561 179.473 170.636 C 179.72 169.599 180.806 168.908 181.842 169.155 C 182.879 169.402 183.521 170.438 183.274 171.524 L 183.274 171.524 Z  M 182.632 149.654 C 183.151 149.585 183.676 149.73 184.086 150.056 C 184.496 150.382 184.755 150.861 184.804 151.382 C 185.002 153.16 185.101 155.036 185.101 156.912 L 185.101 157.998 C 185.101 159.084 184.212 159.923 183.126 159.923 L 183.077 159.923 C 181.991 159.923 181.102 158.985 181.151 157.899 L 181.151 156.862 C 181.151 155.134 181.053 153.406 180.855 151.777 C 180.769 150.703 181.56 149.759 182.632 149.654 L 182.632 149.654 Z  M 174.585 132.03 C 175.474 131.388 176.708 131.536 177.35 132.425 C 178.732 134.202 179.917 136.128 180.904 138.102 C 181.214 138.717 181.182 139.448 180.819 140.032 C 180.456 140.617 179.815 140.97 179.127 140.966 C 178.387 140.966 177.695 140.571 177.35 139.88 C 176.461 138.102 175.375 136.374 174.19 134.795 C 173.549 133.906 173.697 132.672 174.585 132.03 Z  M 171.821 191.37 C 172.265 190.482 172.66 189.593 173.055 188.705 C 173.499 187.717 174.684 187.273 175.671 187.717 C 176.659 188.162 177.103 189.346 176.659 190.334 C 176.264 191.222 175.819 192.16 175.375 193.049 C 175.03 193.74 174.338 194.184 173.598 194.184 C 173.302 194.184 173.006 194.135 172.759 193.987 C 171.722 193.543 171.327 192.358 171.821 191.37 L 171.821 191.37 Z  M 158.788 120.577 C 159.021 120.103 159.434 119.742 159.935 119.575 C 160.436 119.408 160.983 119.449 161.453 119.688 C 163.477 120.675 165.403 121.811 167.18 122.996 C 167.89 123.482 168.203 124.371 167.955 125.195 C 167.707 126.018 166.954 126.587 166.094 126.6 C 165.699 126.6 165.353 126.501 165.008 126.254 C 163.379 125.168 161.601 124.131 159.725 123.193 C 158.738 122.749 158.294 121.564 158.788 120.577 L 158.788 120.577 Z  M 156.912 152.617 L 162.391 147.137 C 163.181 146.347 164.415 146.347 165.205 147.137 C 165.995 147.927 165.995 149.161 165.205 149.951 L 159.725 155.43 L 165.205 160.91 C 165.995 161.7 165.995 162.934 165.205 163.724 C 164.81 164.119 164.317 164.317 163.823 164.317 C 163.329 164.317 162.836 164.119 162.441 163.724 L 156.961 158.244 L 151.481 163.724 C 151.086 164.119 150.592 164.317 150.099 164.317 C 149.605 164.317 149.111 164.119 148.716 163.724 C 148.337 163.355 148.123 162.847 148.123 162.317 C 148.123 161.788 148.337 161.28 148.716 160.91 L 154.196 155.43 L 148.716 149.951 C 147.927 149.161 147.927 147.927 148.716 147.137 C 149.506 146.347 150.741 146.347 151.53 147.137 L 156.912 152.617 L 156.912 152.617 Z  M 143.237 116.232 C 143.385 115.146 144.372 114.406 145.458 114.554 C 145.507 114.554 146.643 114.702 148.568 115.146 C 149.654 115.393 150.296 116.43 150.049 117.516 C 149.852 118.454 149.013 119.046 148.124 119.046 C 147.976 119.046 147.828 119.046 147.68 118.997 C 146.001 118.602 144.964 118.454 144.964 118.454 C 143.829 118.306 143.088 117.318 143.237 116.232 L 143.237 116.232 Z  M 130.302 108.432 C 136.029 108.432 140.719 113.122 140.719 118.849 C 140.719 124.575 136.029 129.265 130.302 129.265 C 124.575 129.265 119.885 124.575 119.885 118.849 C 119.885 113.122 124.575 108.432 130.302 108.432 Z  M 150 25 C 80.934 25 25 80.983 25 150 C 25 219.066 80.983 275 150 275 C 219.017 275 275 219.017 275 150 C 275.049 80.983 219.066 25 150 25 Z  M 219.955 226.669 C 219.955 229.384 217.733 231.605 215.018 231.605 L 85.032 231.605 C 82.316 231.605 80.095 229.384 80.095 226.669 L 80.095 80.934 C 80.095 78.219 82.316 75.997 85.032 75.997 L 122.403 75.997 L 122.403 70.32 C 122.403 67.605 124.625 65.383 127.34 65.383 L 133.758 65.383 L 133.758 59.607 C 133.758 56.892 135.979 54.67 138.695 54.67 L 161.305 54.67 C 164.021 54.67 166.242 56.892 166.242 59.607 L 166.242 65.383 L 172.66 65.383 C 175.375 65.383 177.597 67.605 177.597 70.32 L 177.597 75.997 L 214.968 75.997 C 217.684 75.997 219.905 78.219 219.905 80.934 L 219.955 226.669 L 219.955 226.669 Z " fill="url(#_lgradient_0)"/></g></svg>